<mxfile host="app.diagrams.net" modified="2023-02-05T14:15:03.080Z" agent="5.0 (Macintosh; Intel Mac OS X 10_15_7) AppleWebKit/537.36 (KHTML, like Gecko) Chrome/107.0.0.0 Safari/537.36" etag="hjckvILu4-hpeZ9Wiph_" version="20.3.0" type="github">
  <diagram id="hqwhN_xybXBuUhj_EF16" name="Page-1">
    <mxGraphModel dx="1214" dy="705" grid="1" gridSize="10" guides="1" tooltips="1" connect="1" arrows="1" fold="1" page="1" pageScale="1" pageWidth="827" pageHeight="1169" math="0" shadow="0">
      <root>
        <mxCell id="0" />
        <mxCell id="1" parent="0" />
        <mxCell id="nS7Ow_QqtCzh0l3Mre8O-4" value="" style="ellipse;whiteSpace=wrap;html=1;aspect=fixed;fillColor=#dae8fc;strokeColor=#6c8ebf;" parent="1" vertex="1">
          <mxGeometry x="290" y="256" width="314" height="314" as="geometry" />
        </mxCell>
        <mxCell id="nS7Ow_QqtCzh0l3Mre8O-5" value="YR" style="text;html=1;resizable=0;autosize=1;align=center;verticalAlign=middle;points=[];fillColor=none;strokeColor=none;rounded=0;fontSize=31;" parent="1" vertex="1">
          <mxGeometry x="400" y="260" width="70" height="50" as="geometry" />
        </mxCell>
        <mxCell id="nS7Ow_QqtCzh0l3Mre8O-7" value="" style="edgeStyle=orthogonalEdgeStyle;rounded=0;orthogonalLoop=1;jettySize=auto;html=1;fontSize=16;" parent="1" source="nS7Ow_QqtCzh0l3Mre8O-6" target="nS7Ow_QqtCzh0l3Mre8O-5" edge="1">
          <mxGeometry relative="1" as="geometry" />
        </mxCell>
        <mxCell id="nS7Ow_QqtCzh0l3Mre8O-6" value="&lt;font style=&quot;font-size: 16px;&quot;&gt;administrasjon&lt;/font&gt;" style="shape=umlActor;verticalLabelPosition=bottom;verticalAlign=top;html=1;outlineConnect=0;fontSize=31;spacing=-17;" parent="1" vertex="1">
          <mxGeometry x="510" y="310" width="30" height="60" as="geometry" />
        </mxCell>
        <mxCell id="nS7Ow_QqtCzh0l3Mre8O-8" value="utvikler" style="shape=umlActor;verticalLabelPosition=bottom;verticalAlign=top;html=1;outlineConnect=0;fontSize=16;" parent="1" vertex="1">
          <mxGeometry x="500" y="450" width="30" height="60" as="geometry" />
        </mxCell>
        <mxCell id="nS7Ow_QqtCzh0l3Mre8O-12" value="" style="endArrow=classic;startArrow=classic;html=1;rounded=0;fontSize=16;" parent="1" target="nS7Ow_QqtCzh0l3Mre8O-8" edge="1">
          <mxGeometry width="50" height="50" relative="1" as="geometry">
            <mxPoint x="520" y="390" as="sourcePoint" />
            <mxPoint x="380" y="320" as="targetPoint" />
          </mxGeometry>
        </mxCell>
        <mxCell id="nS7Ow_QqtCzh0l3Mre8O-16" value="designer" style="shape=umlActor;verticalLabelPosition=bottom;verticalAlign=top;html=1;outlineConnect=0;fontSize=16;" parent="1" vertex="1">
          <mxGeometry x="440" y="450" width="30" height="60" as="geometry" />
        </mxCell>
        <mxCell id="nS7Ow_QqtCzh0l3Mre8O-18" value="" style="endArrow=classic;startArrow=none;html=1;rounded=0;fontSize=16;" parent="1" source="nS7Ow_QqtCzh0l3Mre8O-47" edge="1">
          <mxGeometry width="50" height="50" relative="1" as="geometry">
            <mxPoint x="460" y="440" as="sourcePoint" />
            <mxPoint x="490" y="390" as="targetPoint" />
          </mxGeometry>
        </mxCell>
        <mxCell id="nS7Ow_QqtCzh0l3Mre8O-29" value="" style="ellipse;whiteSpace=wrap;html=1;aspect=fixed;fontSize=16;" parent="1" vertex="1">
          <mxGeometry x="200" y="341.25" width="187.5" height="187.5" as="geometry" />
        </mxCell>
        <mxCell id="nS7Ow_QqtCzh0l3Mre8O-19" value="meteorologer" style="shape=umlActor;verticalLabelPosition=bottom;verticalAlign=top;html=1;outlineConnect=0;fontSize=16;" parent="1" vertex="1">
          <mxGeometry x="267.5" y="420" width="30" height="60" as="geometry" />
        </mxCell>
        <mxCell id="nS7Ow_QqtCzh0l3Mre8O-20" value="´" style="shape=umlActor;verticalLabelPosition=bottom;verticalAlign=top;html=1;outlineConnect=0;fontSize=16;" parent="1" vertex="1">
          <mxGeometry x="310" y="420" width="30" height="60" as="geometry" />
        </mxCell>
        <mxCell id="nS7Ow_QqtCzh0l3Mre8O-31" value="" style="endArrow=classic;startArrow=classic;html=1;rounded=0;fontSize=16;exitX=0.994;exitY=1.053;exitDx=0;exitDy=0;exitPerimeter=0;" parent="1" source="nS7Ow_QqtCzh0l3Mre8O-32" target="nS7Ow_QqtCzh0l3Mre8O-5" edge="1">
          <mxGeometry width="50" height="50" relative="1" as="geometry">
            <mxPoint x="340" y="370" as="sourcePoint" />
            <mxPoint x="390" y="320" as="targetPoint" />
          </mxGeometry>
        </mxCell>
        <mxCell id="nS7Ow_QqtCzh0l3Mre8O-32" value="Meteorologisk &lt;br&gt;Institutt" style="text;html=1;resizable=0;autosize=1;align=center;verticalAlign=middle;points=[];fillColor=none;strokeColor=none;rounded=0;fontSize=16;" parent="1" vertex="1">
          <mxGeometry x="233.75" y="360" width="120" height="50" as="geometry" />
        </mxCell>
        <mxCell id="nS7Ow_QqtCzh0l3Mre8O-33" value="" style="ellipse;shape=cloud;whiteSpace=wrap;html=1;fontSize=16;" parent="1" vertex="1">
          <mxGeometry x="70" y="350" width="180" height="140" as="geometry" />
        </mxCell>
        <mxCell id="nS7Ow_QqtCzh0l3Mre8O-35" value="Finne nøyaktig &lt;br&gt;værdata" style="text;html=1;resizable=0;autosize=1;align=center;verticalAlign=middle;points=[];fillColor=none;strokeColor=none;rounded=0;fontSize=16;" parent="1" vertex="1">
          <mxGeometry x="100" y="395.5" width="130" height="50" as="geometry" />
        </mxCell>
        <mxCell id="nS7Ow_QqtCzh0l3Mre8O-36" value="" style="shape=callout;whiteSpace=wrap;html=1;perimeter=calloutPerimeter;fontSize=16;position2=0;rotation=15;" parent="1" vertex="1">
          <mxGeometry x="550" y="410" width="120" height="80" as="geometry" />
        </mxCell>
        <mxCell id="nS7Ow_QqtCzh0l3Mre8O-38" value="For få utviklere" style="text;html=1;resizable=0;autosize=1;align=center;verticalAlign=middle;points=[];fillColor=none;strokeColor=none;rounded=0;fontSize=16;rotation=15;" parent="1" vertex="1">
          <mxGeometry x="550" y="420" width="130" height="30" as="geometry" />
        </mxCell>
        <mxCell id="nS7Ow_QqtCzh0l3Mre8O-43" value="" style="triangle;whiteSpace=wrap;html=1;fontSize=16;rotation=-60;" parent="1" vertex="1">
          <mxGeometry x="387.5" y="535.67" width="40" height="40" as="geometry" />
        </mxCell>
        <mxCell id="nS7Ow_QqtCzh0l3Mre8O-42" value="" style="rounded=0;whiteSpace=wrap;html=1;fontSize=16;" parent="1" vertex="1">
          <mxGeometry x="290" y="560" width="140" height="70" as="geometry" />
        </mxCell>
        <mxCell id="nS7Ow_QqtCzh0l3Mre8O-44" value="&lt;font style=&quot;font-size: 12px;&quot;&gt;Ikke nok muligheter til &lt;br&gt;å snakke med brukere&lt;/font&gt;" style="text;html=1;resizable=0;autosize=1;align=center;verticalAlign=middle;points=[];fillColor=none;strokeColor=none;rounded=0;fontSize=16;" parent="1" vertex="1">
          <mxGeometry x="290" y="570" width="140" height="50" as="geometry" />
        </mxCell>
        <mxCell id="nS7Ow_QqtCzh0l3Mre8O-45" value="" style="shape=flexArrow;endArrow=classic;html=1;rounded=0;fontSize=12;" parent="1" edge="1">
          <mxGeometry width="50" height="50" relative="1" as="geometry">
            <mxPoint x="430" y="370" as="sourcePoint" />
            <mxPoint x="480" y="320" as="targetPoint" />
          </mxGeometry>
        </mxCell>
        <mxCell id="nS7Ow_QqtCzh0l3Mre8O-48" value="" style="shape=mxgraph.signs.healthcare.heart_1;html=1;pointerEvents=1;fillColor=#000000;strokeColor=none;verticalLabelPosition=bottom;verticalAlign=top;align=center;sketch=0;fontSize=12;" parent="1" vertex="1">
          <mxGeometry x="367" y="346" width="33" height="24" as="geometry" />
        </mxCell>
        <mxCell id="nS7Ow_QqtCzh0l3Mre8O-50" value="" style="ellipse;whiteSpace=wrap;html=1;aspect=fixed;fontSize=12;" parent="1" vertex="1">
          <mxGeometry x="540" y="141" width="190" height="190" as="geometry" />
        </mxCell>
        <mxCell id="nS7Ow_QqtCzh0l3Mre8O-49" value="" style="shape=mxgraph.signs.transportation.airplane_3;html=1;pointerEvents=1;fillColor=#000000;strokeColor=none;verticalLabelPosition=bottom;verticalAlign=top;align=center;sketch=0;fontSize=12;" parent="1" vertex="1">
          <mxGeometry x="560" y="213" width="60" height="74" as="geometry" />
        </mxCell>
        <mxCell id="nS7Ow_QqtCzh0l3Mre8O-51" value="&lt;font style=&quot;font-size: 18px;&quot;&gt;Flyselskap&lt;/font&gt;" style="text;html=1;resizable=0;autosize=1;align=center;verticalAlign=middle;points=[];fillColor=none;strokeColor=none;rounded=0;fontSize=12;" parent="1" vertex="1">
          <mxGeometry x="590" y="160" width="110" height="40" as="geometry" />
        </mxCell>
        <mxCell id="nS7Ow_QqtCzh0l3Mre8O-52" value="" style="shape=callout;whiteSpace=wrap;html=1;perimeter=calloutPerimeter;fontSize=18;position2=1;" parent="1" vertex="1">
          <mxGeometry x="390" y="120" width="160" height="111" as="geometry" />
        </mxCell>
        <mxCell id="nS7Ow_QqtCzh0l3Mre8O-53" value="Håper vi får korrekt&lt;br&gt;værmelding" style="text;html=1;resizable=0;autosize=1;align=center;verticalAlign=middle;points=[];fillColor=none;strokeColor=none;rounded=0;fontSize=18;" parent="1" vertex="1">
          <mxGeometry x="380" y="130" width="180" height="60" as="geometry" />
        </mxCell>
        <mxCell id="nS7Ow_QqtCzh0l3Mre8O-54" value="Flygeleder" style="shape=umlActor;verticalLabelPosition=bottom;verticalAlign=top;html=1;outlineConnect=0;fontSize=18;" parent="1" vertex="1">
          <mxGeometry x="640" y="213" width="30" height="60" as="geometry" />
        </mxCell>
        <mxCell id="nS7Ow_QqtCzh0l3Mre8O-55" value="" style="endArrow=classic;startArrow=none;html=1;rounded=0;fontSize=18;entryX=0;entryY=0.5;entryDx=0;entryDy=0;entryPerimeter=0;" parent="1" source="nS7Ow_QqtCzh0l3Mre8O-60" target="nS7Ow_QqtCzh0l3Mre8O-49" edge="1">
          <mxGeometry width="50" height="50" relative="1" as="geometry">
            <mxPoint x="480" y="280" as="sourcePoint" />
            <mxPoint x="530" y="230" as="targetPoint" />
          </mxGeometry>
        </mxCell>
        <mxCell id="nS7Ow_QqtCzh0l3Mre8O-47" value="" style="shape=mxgraph.signs.safety.no_entry;html=1;pointerEvents=1;fillColor=#000000;strokeColor=none;verticalLabelPosition=bottom;verticalAlign=top;align=center;sketch=0;fontSize=12;" parent="1" vertex="1">
          <mxGeometry x="460" y="398.5" width="30" height="29" as="geometry" />
        </mxCell>
        <mxCell id="nS7Ow_QqtCzh0l3Mre8O-58" value="" style="endArrow=none;startArrow=classic;html=1;rounded=0;fontSize=16;" parent="1" target="nS7Ow_QqtCzh0l3Mre8O-47" edge="1">
          <mxGeometry width="50" height="50" relative="1" as="geometry">
            <mxPoint x="460" y="440" as="sourcePoint" />
            <mxPoint x="490" y="390" as="targetPoint" />
          </mxGeometry>
        </mxCell>
        <mxCell id="nS7Ow_QqtCzh0l3Mre8O-59" value="" style="shape=mxgraph.signs.safety.no_entry;html=1;pointerEvents=1;fillColor=#000000;strokeColor=none;verticalLabelPosition=bottom;verticalAlign=top;align=center;sketch=0;fontSize=12;" parent="1" vertex="1">
          <mxGeometry x="500" y="406" width="30" height="29" as="geometry" />
        </mxCell>
        <mxCell id="nS7Ow_QqtCzh0l3Mre8O-60" value="" style="shape=mxgraph.signs.healthcare.heart_1;html=1;pointerEvents=1;fillColor=#000000;strokeColor=none;verticalLabelPosition=bottom;verticalAlign=top;align=center;sketch=0;fontSize=18;" parent="1" vertex="1">
          <mxGeometry x="495" y="246" width="40" height="34" as="geometry" />
        </mxCell>
        <mxCell id="nS7Ow_QqtCzh0l3Mre8O-61" value="" style="endArrow=none;startArrow=classic;html=1;rounded=0;fontSize=18;entryX=0;entryY=0.5;entryDx=0;entryDy=0;entryPerimeter=0;" parent="1" source="nS7Ow_QqtCzh0l3Mre8O-5" target="nS7Ow_QqtCzh0l3Mre8O-60" edge="1">
          <mxGeometry width="50" height="50" relative="1" as="geometry">
            <mxPoint x="470" y="275.19999999999993" as="sourcePoint" />
            <mxPoint x="560" y="250" as="targetPoint" />
          </mxGeometry>
        </mxCell>
        <mxCell id="nS7Ow_QqtCzh0l3Mre8O-63" value="Sluttbruker" style="shape=umlActor;verticalLabelPosition=bottom;verticalAlign=top;html=1;outlineConnect=0;fontSize=18;" parent="1" vertex="1">
          <mxGeometry x="190" y="206" width="30" height="60" as="geometry" />
        </mxCell>
        <mxCell id="nS7Ow_QqtCzh0l3Mre8O-64" value="Sluttbruker" style="shape=umlActor;verticalLabelPosition=bottom;verticalAlign=top;html=1;outlineConnect=0;fontSize=18;" parent="1" vertex="1">
          <mxGeometry x="250" y="233" width="30" height="60" as="geometry" />
        </mxCell>
        <mxCell id="nS7Ow_QqtCzh0l3Mre8O-69" value="" style="endArrow=classic;startArrow=classic;html=1;rounded=0;fontSize=18;entryX=0.001;entryY=0.24;entryDx=0;entryDy=0;entryPerimeter=0;" parent="1" target="nS7Ow_QqtCzh0l3Mre8O-5" edge="1">
          <mxGeometry width="50" height="50" relative="1" as="geometry">
            <mxPoint x="300" y="250" as="sourcePoint" />
            <mxPoint x="360" y="230" as="targetPoint" />
          </mxGeometry>
        </mxCell>
        <mxCell id="nS7Ow_QqtCzh0l3Mre8O-70" value="&lt;font style=&quot;font-size: 14px;&quot;&gt;Håper vi får korrekt værmelding&lt;/font&gt;" style="ellipse;shape=cloud;whiteSpace=wrap;html=1;fontSize=18;" parent="1" vertex="1">
          <mxGeometry x="150" y="97" width="190" height="126" as="geometry" />
        </mxCell>
      </root>
    </mxGraphModel>
  </diagram>
</mxfile>
